{
  "accessors": [
    {
      "bufferView": 2,
      "componentType": 5126,
      "count": 65532,
      "max": [
        0.3359139859676361,
        0.8930739760398865,
        0.24711300432682037
      ],
      "min": [
        -0.3688740134239197,
        -0.9520220160484314,
        -0.26325199007987976
      ],
      "type": "VEC3"
    },
    {
      "bufferView": 2,
      "byteOffset": 786384,
      "componentType": 5126,
      "count": 65532,
      "max": [
        0.9999896287918091,
        0.9998094439506531,
        0.9999841451644897
      ],
      "min": [
        -0.9999954104423523,
        -0.9999876022338867,
        -0.9999672174453735
      ],
      "type": "VEC3"
    },
    {
      "bufferView": 1,
      "componentType": 5126,
      "count": 65532,
      "max": [
        0.9953650236129761,
        0.998757004737854
      ],
      "min": [
        0.0026000000070780516,
        0.002575993537902832
      ],
      "type": "VEC2"
    },
    {
      "bufferView": 0,
      "componentType": 5125,
      "count": 341457,
      "type": "SCALAR"
    },
    {
      "bufferView": 2,
      "byteOffset": 1572768,
      "componentType": 5126,
      "count": 65532,
      "max": [
        0.3652600049972534,
        0.9518719911575317,
        0.26294898986816406
      ],
      "min": [
        -0.3451929986476898,
        -0.952003002166748,
        -0.2734380066394806
      ],
      "type": "VEC3"
    },
    {
      "bufferView": 2,
      "byteOffset": 2359152,
      "componentType": 5126,
      "count": 65532,
      "max": [
        0.999997615814209,
        0.9999116659164429,
        0.9999916553497314
      ],
      "min": [
        -0.9999991655349731,
        -0.9999997615814209,
        -0.9999788403511047
      ],
      "type": "VEC3"
    },
    {
      "bufferView": 1,
      "byteOffset": 524256,
      "componentType": 5126,
      "count": 65532,
      "max": [
        0.9968630075454712,
        0.9989200234413147
      ],
      "min": [
        0.004435000009834766,
        0.0030670166015625
      ],
      "type": "VEC2"
    },
    {
      "bufferView": 0,
      "byteOffset": 1365828,
      "componentType": 5125,
      "count": 339759,
      "type": "SCALAR"
    },
    {
      "bufferView": 2,
      "byteOffset": 3145536,
      "componentType": 5126,
      "count": 65532,
      "max": [
        0.3324989974498749,
        0.9518719911575317,
        0.2626970112323761
      ],
      "min": [
        -0.3492070138454437,
        -0.9520220160484314,
        -0.2779580056667328
      ],
      "type": "VEC3"
    },
    {
      "bufferView": 2,
      "byteOffset": 3931920,
      "componentType": 5126,
      "count": 65532,
      "max": [
        0.9999747276306152,
        0.9999808073043823,
        0.9999955892562866
      ],
      "min": [
        -0.9999536275863647,
        -0.9999902248382568,
        -0.999950647354126
      ],
      "type": "VEC3"
    },
    {
      "bufferView": 1,
      "byteOffset": 1048512,
      "componentType": 5126,
      "count": 65532,
      "max": [
        0.9999780058860779,
        0.9999930262565613
      ],
      "min": [
        6.800000119255856e-05,
        0.0011960268020629883
      ],
      "type": "VEC2"
    },
    {
      "bufferView": 0,
      "byteOffset": 2724864,
      "componentType": 5125,
      "count": 318378,
      "type": "SCALAR"
    },
    {
      "bufferView": 2,
      "byteOffset": 4718304,
      "componentType": 5126,
      "count": 65532,
      "max": [
        0.36507299542427063,
        0.9518319964408875,
        0.11621099710464478
      ],
      "min": [
        -0.36832401156425476,
        -0.9515290260314941,
        -0.27692800760269165
      ],
      "type": "VEC3"
    },
    {
      "bufferView": 2,
      "byteOffset": 5504688,
      "componentType": 5126,
      "count": 65532,
      "max": [
        0.9999896287918091,
        0.9998108744621277,
        0.9999220967292786
      ],
      "min": [
        -0.9999984502792358,
        -0.9999970197677612,
        -0.9999808073043823
      ],
      "type": "VEC3"
    },
    {
      "bufferView": 1,
      "byteOffset": 1572768,
      "componentType": 5126,
      "count": 65532,
      "max": [
        0.9999430179595947,
        0.9999470114707947
      ],
      "min": [
        6.000000212225132e-06,
        0.0011159777641296387
      ],
      "type": "VEC2"
    },
    {
      "bufferView": 0,
      "byteOffset": 3998376,
      "componentType": 5125,
      "count": 301089,
      "type": "SCALAR"
    },
    {
      "bufferView": 2,
      "byteOffset": 6291072,
      "componentType": 5126,
      "count": 21637,
      "max": [
        0.35815098881721497,
        0.9462800025939941,
        0.03320299834012985
      ],
      "min": [
        -0.3337090015411377,
        -0.9519420266151428,
        -0.167480006814003
      ],
      "type": "VEC3"
    },
    {
      "bufferView": 2,
      "byteOffset": 6550716,
      "componentType": 5126,
      "count": 21637,
      "max": [
        0.999967634677887,
        0.9998728036880493,
        0.9996240735054016
      ],
      "min": [
        -0.9999536275863647,
        -0.9999788999557495,
        -0.9999890327453613
      ],
      "type": "VEC3"
    },
    {
      "bufferView": 1,
      "byteOffset": 2097024,
      "componentType": 5126,
      "count": 21637,
      "max": [
        0.9999970197677612,
        0.9999790191650391
      ],
      "min": [
        1.700000029813964e-05,
        0.001042008399963379
      ],
      "type": "VEC2"
    },
    {
      "bufferView": 0,
      "byteOffset": 5202732,
      "componentType": 5125,
      "count": 82527,
      "type": "SCALAR"
    }
  ],
  "asset": {
    "extras": {
      "author": "dnt2 (https://sketchfab.com/dnt2)",
      "license": "CC-BY-4.0 (http://creativecommons.org/licenses/by/4.0/)",
      "source": "https://sketchfab.com/3d-models/the-traveler-065fc05398bf4bcc915ed6ac36d844c5",
      "title": "The Traveler"
    },
    "generator": "Sketchfab-16.75.0",
    "version": "2.0"
  },
  "bufferViews": [
    {
      "buffer": 0,
      "byteLength": 5532840,
      "name": "floatBufferViews",
      "target": 34963
    },
    {
      "buffer": 0,
      "byteLength": 2270120,
      "byteOffset": 5532840,
      "byteStride": 8,
      "name": "floatBufferViews",
      "target": 34962
    },
    {
      "buffer": 0,
      "byteLength": 6810360,
      "byteOffset": 7802960,
      "byteStride": 12,
      "name": "floatBufferViews",
      "target": 34962
    }
  ],
  "buffers": [
    {
      "byteLength": 14613320,
      "uri": "scene.bin"
    }
  ],
  "images": [
    {
      "uri": "textures/material_0_baseColor.jpeg"
    }
  ],
  "materials": [
    {
      "doubleSided": true,
      "name": "material_0",
      "pbrMetallicRoughness": {
        "baseColorTexture": {
          "index": 0
        },
        "metallicFactor": 0.0,
        "roughnessFactor": 0.8
      }
    }
  ],
  "meshes": [
    {
      "name": "Object_0",
      "primitives": [
        {
          "attributes": {
            "NORMAL": 1,
            "POSITION": 0,
            "TEXCOORD_0": 2
          },
          "indices": 3,
          "material": 0,
          "mode": 4
        }
      ]
    },
    {
      "name": "Object_1",
      "primitives": [
        {
          "attributes": {
            "NORMAL": 5,
            "POSITION": 4,
            "TEXCOORD_0": 6
          },
          "indices": 7,
          "material": 0,
          "mode": 4
        }
      ]
    },
    {
      "name": "Object_2",
      "primitives": [
        {
          "attributes": {
            "NORMAL": 9,
            "POSITION": 8,
            "TEXCOORD_0": 10
          },
          "indices": 11,
          "material": 0,
          "mode": 4
        }
      ]
    },
    {
      "name": "Object_3",
      "primitives": [
        {
          "attributes": {
            "NORMAL": 13,
            "POSITION": 12,
            "TEXCOORD_0": 14
          },
          "indices": 15,
          "material": 0,
          "mode": 4
        }
      ]
    },
    {
      "name": "Object_4",
      "primitives": [
        {
          "attributes": {
            "NORMAL": 17,
            "POSITION": 16,
            "TEXCOORD_0": 18
          },
          "indices": 19,
          "material": 0,
          "mode": 4
        }
      ]
    }
  ],
  "nodes": [
    {
      "children": [
        1
      ],
      "matrix": [
        1.0,
        0.0,
        0.0,
        0.0,
        0.0,
        2.220446049250313e-16,
        -1.0,
        0.0,
        0.0,
        1.0,
        2.220446049250313e-16,
        0.0,
        0.0,
        0.0,
        0.0,
        1.0
      ],
      "name": "Sketchfab_model"
    },
    {
      "children": [
        2
      ],
      "name": "root"
    },
    {
      "children": [
        3
      ],
      "matrix": [
        1.0,
        0.0,
        0.0,
        0.0,
        0.0,
        2.220446049250313e-16,
        1.0,
        0.0,
        0.0,
        -1.0,
        2.220446049250313e-16,
        0.0,
        0.0,
        0.0,
        0.0,
        1.0
      ],
      "name": "GLTF_SceneRootNode"
    },
    {
      "children": [
        4,
        5,
        6,
        7,
        8
      ],
      "name": "_0"
    },
    {
      "mesh": 0,
      "name": "Object_4"
    },
    {
      "mesh": 1,
      "name": "Object_5"
    },
    {
      "mesh": 2,
      "name": "Object_6"
    },
    {
      "mesh": 3,
      "name": "Object_7"
    },
    {
      "mesh": 4,
      "name": "Object_8"
    }
  ],
  "samplers": [
    {
      "magFilter": 9729,
      "minFilter": 9987,
      "wrapS": 10497,
      "wrapT": 10497
    }
  ],
  "scene": 0,
  "scenes": [
    {
      "name": "Sketchfab_Scene",
      "nodes": [
        0
      ]
    }
  ],
  "textures": [
    {
      "sampler": 0,
      "source": 0
    }
  ]
}
