{
  "accessors": [
    {
      "bufferView": 2,
      "componentType": 5126,
      "count": 10892,
      "max": [
        32.66599655151367,
        9.44007682800293,
        17.261417388916016
      ],
      "min": [
        -28.157716751098633,
        -0.22345662117004395,
        -17.172086715698242
      ],
      "type": "VEC3"
    },
    {
      "bufferView": 2,
      "byteOffset": 130704,
      "componentType": 5126,
      "count": 10892,
      "max": [
        1.0,
        1.0,
        1.0
      ],
      "min": [
        -1.0,
        -1.0,
        -1.0
      ],
      "type": "VEC3"
    },
    {
      "bufferView": 1,
      "componentType": 5126,
      "count": 10892,
      "max": [
        0.9699090123176575,
        0.9842173457145691
      ],
      "min": [
        0.0,
        0.0
      ],
      "type": "VEC2"
    },
    {
      "bufferView": 0,
      "componentType": 5125,
      "count": 29145,
      "type": "SCALAR"
    },
    {
      "bufferView": 2,
      "byteOffset": 261408,
      "componentType": 5126,
      "count": 397,
      "max": [
        -5.046158790588379,
        1.449749231338501,
        2.1034793853759766
      ],
      "min": [
        -5.742561340332031,
        0.5670031309127808,
        1.4070765972137451
      ],
      "type": "VEC3"
    },
    {
      "bufferView": 2,
      "byteOffset": 266172,
      "componentType": 5126,
      "count": 397,
      "max": [
        1.0,
        1.0,
        1.0
      ],
      "min": [
        -1.0,
        -1.0,
        -1.0
      ],
      "type": "VEC3"
    },
    {
      "bufferView": 1,
      "byteOffset": 87136,
      "componentType": 5126,
      "count": 397,
      "max": [
        0.2801870107650757,
        0.6743477582931519
      ],
      "min": [
        0.020018093287944794,
        0.47601667046546936
      ],
      "type": "VEC2"
    },
    {
      "bufferView": 0,
      "byteOffset": 116580,
      "componentType": 5125,
      "count": 1032,
      "type": "SCALAR"
    },
    {
      "bufferView": 2,
      "byteOffset": 270936,
      "componentType": 5126,
      "count": 1478,
      "max": [
        0.47372913360595703,
        0.5107134580612183,
        0.47497791051864624
      ],
      "min": [
        -0.4757242202758789,
        -0.5107135772705078,
        -0.4737290143966675
      ],
      "type": "VEC3"
    },
    {
      "bufferView": 2,
      "byteOffset": 288672,
      "componentType": 5126,
      "count": 1478,
      "max": [
        1.0,
        1.0,
        0.9999241828918457
      ],
      "min": [
        -0.9997796416282654,
        -1.0,
        -1.0
      ],
      "type": "VEC3"
    },
    {
      "bufferView": 1,
      "byteOffset": 90312,
      "componentType": 5126,
      "count": 1478,
      "max": [
        0.549821138381958,
        0.9657519459724426
      ],
      "min": [
        0.1747029721736908,
        0.5604863166809082
      ],
      "type": "VEC2"
    },
    {
      "bufferView": 0,
      "byteOffset": 120708,
      "componentType": 5125,
      "count": 4140,
      "type": "SCALAR"
    }
  ],
  "asset": {
    "extras": {
      "author": "nuo2K (https://sketchfab.com/nuo2K)",
      "license": "CC-BY-4.0 (http://creativecommons.org/licenses/by/4.0/)",
      "source": "https://sketchfab.com/3d-models/generic-suburb-no-textures-416baa1df082495ca68e7e942330b0b6",
      "title": "Generic suburb (no textures)"
    },
    "generator": "Sketchfab-13.31.0",
    "version": "2.0"
  },
  "bufferViews": [
    {
      "buffer": 0,
      "byteLength": 137268,
      "name": "floatBufferViews",
      "target": 34963
    },
    {
      "buffer": 0,
      "byteLength": 102136,
      "byteOffset": 137268,
      "byteStride": 8,
      "name": "floatBufferViews",
      "target": 34962
    },
    {
      "buffer": 0,
      "byteLength": 306408,
      "byteOffset": 239404,
      "byteStride": 12,
      "name": "floatBufferViews",
      "target": 34962
    }
  ],
  "buffers": [
    {
      "byteLength": 545812,
      "uri": "scene.bin"
    }
  ],
  "materials": [
    {
      "doubleSided": true,
      "name": "loco",
      "pbrMetallicRoughness": {
        "metallicFactor": 0.0,
        "roughnessFactor": 0.6
      }
    },
    {
      "doubleSided": true,
      "name": "objes",
      "pbrMetallicRoughness": {
        "metallicFactor": 0.0,
        "roughnessFactor": 0.6
      }
    }
  ],
  "meshes": [
    {
      "name": "polySurface47_loco_0",
      "primitives": [
        {
          "attributes": {
            "NORMAL": 1,
            "POSITION": 0,
            "TEXCOORD_0": 2
          },
          "indices": 3,
          "material": 0,
          "mode": 4
        }
      ]
    },
    {
      "name": "polySurface43_objes_0",
      "primitives": [
        {
          "attributes": {
            "NORMAL": 5,
            "POSITION": 4,
            "TEXCOORD_0": 6
          },
          "indices": 7,
          "material": 1,
          "mode": 4
        }
      ]
    },
    {
      "name": "pSphere1_objes_0",
      "primitives": [
        {
          "attributes": {
            "NORMAL": 9,
            "POSITION": 8,
            "TEXCOORD_0": 10
          },
          "indices": 11,
          "material": 1,
          "mode": 4
        }
      ]
    }
  ],
  "nodes": [
    {
      "children": [
        1
      ],
      "matrix": [
        1.0,
        0.0,
        0.0,
        0.0,
        0.0,
        2.220446049250313e-16,
        -1.0,
        0.0,
        0.0,
        1.0,
        2.220446049250313e-16,
        0.0,
        0.0,
        0.0,
        0.0,
        1.0
      ],
      "name": "Sketchfab_model"
    },
    {
      "children": [
        2
      ],
      "matrix": [
        0.009999999776482582,
        0.0,
        0.0,
        0.0,
        0.0,
        0.0,
        0.009999999776482582,
        0.0,
        0.0,
        -0.009999999776482582,
        0.0,
        0.0,
        0.0,
        0.0,
        0.0,
        1.0
      ],
      "name": "c6663e74ad314c46ab0e6b4dc26eb536.fbx"
    },
    {
      "children": [
        3,
        7,
        9,
        11,
        14,
        17,
        20,
        23,
        26,
        29,
        32
      ],
      "name": "RootNode"
    },
    {
      "children": [
        4
      ],
      "name": "polySurface41"
    },
    {
      "children": [
        5
      ],
      "name": "polySurface45"
    },
    {
      "children": [
        6
      ],
      "name": "polySurface47"
    },
    {
      "mesh": 0,
      "name": "polySurface47_loco_0"
    },
    {
      "children": [
        8
      ],
      "name": "polySurface43"
    },
    {
      "mesh": 1,
      "name": "polySurface43_objes_0"
    },
    {
      "children": [
        10
      ],
      "matrix": [
        0.22417409718036652,
        0.0,
        0.0,
        0.0,
        0.0,
        0.22417409718036652,
        0.0,
        0.0,
        0.0,
        0.0,
        0.22417409718036652,
        0.0,
        -5.083169460296631,
        0.7764695286750793,
        0.9301754832267761,
        1.0
      ],
      "name": "pSphere1"
    },
    {
      "mesh": 2,
      "name": "pSphere1_objes_0"
    },
    {
      "children": [
        12
      ],
      "matrix": [
        1.6200576312811292,
        0.02685909706154421,
        0.0,
        0.0,
        -0.02685909706154421,
        1.6200576312811292,
        0.0,
        0.0,
        0.0,
        0.0,
        0.14317640662193298,
        0.0,
        4.34578275680542,
        5.4608893394470215,
        12.509272575378418,
        1.0
      ],
      "name": "spotLight1"
    },
    {
      "children": [
        13
      ],
      "matrix": [
        1.0,
        0.0,
        0.0,
        0.0,
        0.0,
        2.220446049250313e-16,
        1.0,
        0.0,
        0.0,
        -1.0,
        2.220446049250313e-16,
        0.0,
        0.0,
        0.0,
        0.0,
        1.0
      ],
      "name": "Object_12"
    },
    {
      "name": "Object_13"
    },
    {
      "children": [
        15
      ],
      "matrix": [
        1.0,
        0.0,
        0.0,
        0.0,
        0.0,
        1.0,
        0.0,
        0.0,
        0.0,
        0.0,
        1.0,
        0.0,
        4.289778232574463,
        5.477001667022705,
        12.538607597351074,
        1.0
      ],
      "name": "pointLight1"
    },
    {
      "children": [
        16
      ],
      "matrix": [
        1.0,
        0.0,
        0.0,
        0.0,
        0.0,
        2.220446049250313e-16,
        1.0,
        0.0,
        0.0,
        -1.0,
        2.220446049250313e-16,
        0.0,
        0.0,
        0.0,
        0.0,
        1.0
      ],
      "name": "Object_15"
    },
    {
      "name": "Object_16"
    },
    {
      "children": [
        18
      ],
      "matrix": [
        1.0,
        0.0,
        0.0,
        0.0,
        0.0,
        1.0,
        0.0,
        0.0,
        0.0,
        0.0,
        1.0,
        0.0,
        -4.465020179748535,
        5.477001667022705,
        5.4294939041137695,
        1.0
      ],
      "name": "pointLight2"
    },
    {
      "children": [
        19
      ],
      "matrix": [
        1.0,
        0.0,
        0.0,
        0.0,
        0.0,
        2.220446049250313e-16,
        1.0,
        0.0,
        0.0,
        -1.0,
        2.220446049250313e-16,
        0.0,
        0.0,
        0.0,
        0.0,
        1.0
      ],
      "name": "Object_18"
    },
    {
      "name": "Object_19"
    },
    {
      "children": [
        21
      ],
      "matrix": [
        1.6200576312811292,
        0.02685909706154421,
        0.0,
        0.0,
        -0.02685909706154421,
        1.6200576312811292,
        0.0,
        0.0,
        0.0,
        0.0,
        0.14317640662193298,
        0.0,
        -4.409016132354736,
        5.4608893394470215,
        5.400158882141113,
        1.0
      ],
      "name": "spotLight2"
    },
    {
      "children": [
        22
      ],
      "matrix": [
        1.0,
        0.0,
        0.0,
        0.0,
        0.0,
        2.220446049250313e-16,
        1.0,
        0.0,
        0.0,
        -1.0,
        2.220446049250313e-16,
        0.0,
        0.0,
        0.0,
        0.0,
        1.0
      ],
      "name": "Object_21"
    },
    {
      "name": "Object_22"
    },
    {
      "children": [
        24
      ],
      "matrix": [
        1.0,
        0.0,
        0.0,
        0.0,
        0.0,
        1.0,
        0.0,
        0.0,
        0.0,
        0.0,
        1.0,
        0.0,
        4.168243885040283,
        5.477001667022705,
        -3.4221911430358887,
        1.0
      ],
      "name": "pointLight3"
    },
    {
      "children": [
        25
      ],
      "matrix": [
        1.0,
        0.0,
        0.0,
        0.0,
        0.0,
        2.220446049250313e-16,
        1.0,
        0.0,
        0.0,
        -1.0,
        2.220446049250313e-16,
        0.0,
        0.0,
        0.0,
        0.0,
        1.0
      ],
      "name": "Object_24"
    },
    {
      "name": "Object_25"
    },
    {
      "children": [
        27
      ],
      "matrix": [
        1.6200576312811292,
        0.02685909706154421,
        0.0,
        0.0,
        -0.02685909706154421,
        1.6200576312811292,
        0.0,
        0.0,
        0.0,
        0.0,
        0.14317640662193298,
        0.0,
        4.224247932434082,
        5.4608893394470215,
        -3.451526403427124,
        1.0
      ],
      "name": "spotLight3"
    },
    {
      "children": [
        28
      ],
      "matrix": [
        1.0,
        0.0,
        0.0,
        0.0,
        0.0,
        2.220446049250313e-16,
        1.0,
        0.0,
        0.0,
        -1.0,
        2.220446049250313e-16,
        0.0,
        0.0,
        0.0,
        0.0,
        1.0
      ],
      "name": "Object_27"
    },
    {
      "name": "Object_28"
    },
    {
      "children": [
        30
      ],
      "matrix": [
        1.0,
        0.0,
        0.0,
        0.0,
        0.0,
        1.0,
        0.0,
        0.0,
        0.0,
        0.0,
        1.0,
        0.0,
        -4.465020179748535,
        5.477001667022705,
        -11.439126014709473,
        1.0
      ],
      "name": "pointLight4"
    },
    {
      "children": [
        31
      ],
      "matrix": [
        1.0,
        0.0,
        0.0,
        0.0,
        0.0,
        2.220446049250313e-16,
        1.0,
        0.0,
        0.0,
        -1.0,
        2.220446049250313e-16,
        0.0,
        0.0,
        0.0,
        0.0,
        1.0
      ],
      "name": "Object_30"
    },
    {
      "name": "Object_31"
    },
    {
      "children": [
        33
      ],
      "matrix": [
        1.6200576312811292,
        0.02685909706154421,
        0.0,
        0.0,
        -0.02685909706154421,
        1.6200576312811292,
        0.0,
        0.0,
        0.0,
        0.0,
        0.14317640662193298,
        0.0,
        -4.409016132354736,
        5.4608893394470215,
        -11.468461036682129,
        1.0
      ],
      "name": "spotLight4"
    },
    {
      "children": [
        34
      ],
      "matrix": [
        1.0,
        0.0,
        0.0,
        0.0,
        0.0,
        2.220446049250313e-16,
        1.0,
        0.0,
        0.0,
        -1.0,
        2.220446049250313e-16,
        0.0,
        0.0,
        0.0,
        0.0,
        1.0
      ],
      "name": "Object_33"
    },
    {
      "name": "Object_34"
    }
  ],
  "scene": 0,
  "scenes": [
    {
      "name": "Sketchfab_Scene",
      "nodes": [
        0
      ]
    }
  ]
}
